<svg xmlns="http://www.w3.org/2000/svg" xmlns:xlink="http://www.w3.org/1999/xlink" width="210" height="60" viewBox="0 0 210 60">
  <defs>
    <linearGradient id="linear-gradient" x1="0.5" x2="0.5" y2="1" gradientUnits="objectBoundingBox">
      <stop offset="0" stop-color="#464b78"/>
      <stop offset="1" stop-color="#191d38"/>
    </linearGradient>
    <radialGradient id="radial-gradient" cx="0.5" cy="0.5" r="0.5" gradientUnits="objectBoundingBox">
      <stop offset="0" stop-color="#48455d"/>
      <stop offset="1" stop-color="#8e8ba3"/>
    </radialGradient>
    <linearGradient id="linear-gradient-4" x1="0.5" x2="0.5" y2="1" gradientUnits="objectBoundingBox">
      <stop offset="0" stop-color="#eaeaf2"/>
      <stop offset="1" stop-color="#a3a3b5"/>
    </linearGradient>
    <linearGradient id="linear-gradient-10" x1="0.135" y1="1" x2="0.832" y2="0.073" xlink:href="#linear-gradient-4"/>
    <linearGradient id="linear-gradient-11" x1="0.5" x2="0.5" y2="1" gradientUnits="objectBoundingBox">
      <stop offset="0" stop-color="#ddaefe"/>
      <stop offset="1" stop-color="#7a5ee6"/>
    </linearGradient>
  </defs>
  <g id="withOutToken" transform="translate(-72.951 -187.904)">
    <g id="组_2535" data-name="组 2535" transform="translate(106.343 190.949)">
      <g id="组_2484" data-name="组 2484" transform="translate(0 4.2)">
        <path id="路径_2247" data-name="路径 2247" d="M168.279,176.563H37.471a7.8,7.8,0,0,1-7.8-7.8V133.572a7.8,7.8,0,0,1,7.8-7.8H168.279a7.8,7.8,0,0,1,7.8,7.8v35.193a7.8,7.8,0,0,1-7.8,7.8" transform="translate(-29.674 -125.775)" fill="url(#linear-gradient)"/>
        <path id="路径_2302" data-name="路径 2302" d="M-5392.9-19056.137c-3.719-3-28.257-.133-37.3.174-3.42.107-16.886.639-23.192.914s-13.243.145-24.4,1.275c-17.966,1.031-21.677-7.092-21.677-7.092l.87-.783h99.207c6.6,0,11.963,3.484,11.963,7.793v10.1C-5388.4-19048.971-5389.61-19053.354-5392.9-19056.137Z" transform="translate(5533.83 19061.652)" opacity="0.174"/>
      </g>
      <path id="路径_2248" data-name="路径 2248" d="M162.985,166.863H43.052a2.348,2.348,0,0,1-2.348-2.347V138.081a2.348,2.348,0,0,1,2.348-2.347H162.985a2.347,2.347,0,0,1,2.347,2.347v26.435a2.347,2.347,0,0,1-2.347,2.347" transform="translate(-29.817 -121.705)" fill="#a9a7b7"/>
      <path id="路径_2249" data-name="路径 2249" d="M111.751,152.635a5.123,5.123,0,1,1-5.124-5.124,5.123,5.123,0,0,1,5.124,5.124" transform="translate(-30.607 -121.857)" fill="#30334a"/>
      <path id="路径_2250" data-name="路径 2250" d="M73.854,160.667H64.861a2.076,2.076,0,0,1-2.076-2.076v-.8a2.075,2.075,0,0,1,2.076-2.076h8.994a2.075,2.075,0,0,1,2.076,2.076v.8a2.076,2.076,0,0,1-2.076,2.076" transform="translate(-30.104 -121.964)" fill="#30334a"/>
      <path id="路径_2251" data-name="路径 2251" d="M91.8,160.195H91a2.076,2.076,0,0,1-2.076-2.076v-9.174A2.076,2.076,0,0,1,91,146.869h.8a2.076,2.076,0,0,1,2.076,2.076v9.174a2.076,2.076,0,0,1-2.076,2.076" transform="translate(-30.444 -121.849)" fill="#30334a"/>
      <path id="路径_2252" data-name="路径 2252" d="M158.744,162.019H121.906a1.566,1.566,0,0,1-1.566-1.566V145.338a1.567,1.567,0,0,1,1.566-1.566h36.837a1.567,1.567,0,0,1,1.566,1.566v15.114a1.566,1.566,0,0,1-1.566,1.566" transform="translate(-30.852 -121.808)" fill="url(#linear-gradient)"/>
      <path id="路径_2253" data-name="路径 2253" d="M130.837,154.808a3.242,3.242,0,1,1-3.242-3.242,3.243,3.243,0,0,1,3.242,3.242" transform="translate(-30.904 -121.91)" fill="#bcbcd3"/>
      <path id="路径_2254" data-name="路径 2254" d="M139.471,154.808a3.242,3.242,0,1,1-3.242-3.242,3.243,3.243,0,0,1,3.242,3.242" transform="translate(-31.016 -121.91)" fill="#bcbcd3"/>
      <path id="路径_2255" data-name="路径 2255" d="M148.1,154.808a3.242,3.242,0,1,1-3.242-3.242,3.243,3.243,0,0,1,3.242,3.242" transform="translate(-31.128 -121.91)" fill="#bcbcd3"/>
      <path id="路径_2256" data-name="路径 2256" d="M156.738,154.808a3.242,3.242,0,1,1-3.242-3.242,3.243,3.243,0,0,1,3.242,3.242" transform="translate(-31.24 -121.91)" fill="#bcbcd3"/>
      <path id="路径_2257" data-name="路径 2257" d="M55.007,147.665a2.9,2.9,0,1,1-2.9-2.9,2.9,2.9,0,0,1,2.9,2.9" transform="translate(-29.928 -121.822)" fill="#999"/>
      <g id="组_2483" data-name="组 2483" transform="translate(10.955 6.336)">
        <path id="路径_2258" data-name="路径 2258" d="M61.968,147.665a2.9,2.9,0,1,1-2.9-2.9,2.9,2.9,0,0,1,2.9,2.9" transform="translate(-40.973 -128.159)" fill="#30334a"/>
        <path id="路径_2301" data-name="路径 2301" d="M5709.271,19334.467l2.883,1.445,2.1-4.412,3.262,1.434-.9,4.775,2.3.7s.819-3.807,1.936-4.791,1.571.918,2.947-.686,2.56-5.711,2.56-5.711-1.246-.482-1.246-2.764.793-3.557,1.246-6.369-1.128-2.639,0-6.049,1.618-6.395,4.506-9.062a6.115,6.115,0,0,1,6.379-1.111l-3.205-2.879-6.432,2.164-3.049,4.535s-2.434,7.914-2.5,8.314-1.743,8.174-1.743,8.174l-6.5,4.291-2.071,3.857Z" transform="translate(-5709.271 -19298.988)" opacity="0.174"/>
      </g>
      <path id="路径_2259" data-name="路径 2259" d="M68.929,147.665a2.9,2.9,0,1,1-2.9-2.9,2.9,2.9,0,0,1,2.9,2.9" transform="translate(-30.108 -121.822)" fill="#30334a"/>
      <path id="路径_2260" data-name="路径 2260" d="M75.89,147.665a2.9,2.9,0,1,1-2.9-2.9,2.9,2.9,0,0,1,2.9,2.9" transform="translate(-30.199 -121.822)" fill="#30334a"/>
      <path id="路径_2261" data-name="路径 2261" d="M82.851,147.665a2.9,2.9,0,1,1-2.9-2.9,2.9,2.9,0,0,1,2.9,2.9" transform="translate(-30.29 -121.822)" fill="#30334a"/>
      <path id="路径_2262" data-name="路径 2262" d="M52.067,160.667h-.8a2.076,2.076,0,0,1-2.076-2.076v-.8a2.075,2.075,0,0,1,2.076-2.076h.8a2.075,2.075,0,0,1,2.076,2.076v.8a2.076,2.076,0,0,1-2.076,2.076" transform="translate(-29.928 -121.964)" fill="#999"/>
      <path id="路径_2263" data-name="路径 2263" d="M59.444,160.667H57.129a2.076,2.076,0,0,1-2.076-2.076v-.8a2.076,2.076,0,0,1,2.076-2.076h2.316a2.075,2.075,0,0,1,2.076,2.076v.8a2.076,2.076,0,0,1-2.076,2.076" transform="translate(-30.003 -121.964)" fill="#30334a"/>
      <path id="路径_2276" data-name="路径 2276" d="M180.921,151.022l-4.379-1.509a1.06,1.06,0,0,0-.557-.192c-1.184,0-2.144,2.24-2.144,5s.959,5,2.144,5a1.067,1.067,0,0,0,.557-.191l4.379-1.51c.782,0,1.414-1.478,1.414-3.3s-.633-3.3-1.414-3.3" transform="translate(-31.547 -121.881)" fill="url(#linear-gradient)"/>
      <path id="路径_2277" data-name="路径 2277" d="M182.047,154.356c0,1.348-.469,2.442-1.046,2.442s-1.047-1.094-1.047-2.442.469-2.442,1.047-2.442,1.046,1.094,1.046,2.442" transform="translate(-31.626 -121.914)" fill="url(#radial-gradient)"/>
      <g id="组_2534" data-name="组 2534" transform="translate(21.761 0)">
        <path id="联合_151" data-name="联合 151" d="M134.1,51.273c-6.05-3.272-4.749-11.929-4.2-15.622l.024-.122a.912.912,0,0,0-.715-1.026l-.6-.131a1.977,1.977,0,0,1,.854-3.86l.6.133a4.883,4.883,0,0,1,3.761,5.464l-.019.124c-.463,3.119-1.441,9.613,2.168,11.567a2.227,2.227,0,0,0,2,.189c2.18-.862,4.243-4.9,5.03-7.24A1.973,1.973,0,1,1,146.744,42c-.268.794-2.729,7.839-7.319,9.66a6.006,6.006,0,0,1-2.234.431A6.525,6.525,0,0,1,134.1,51.273Zm11.892-13.521a1.966,1.966,0,0,1-1.966-1.855c-.739-12.251-6.978-31.677-25.237-31.677h-.531c-1.7.029-6.923-.017-14.2-.06C76.113,3.982,17.869,3.8,12.246,8.083A21.152,21.152,0,0,0,3.871,21.39,1.976,1.976,0,0,1,.08,20.274,25,25,0,0,1,9.853,4.938c7.107-5.4,64.844-5.1,93.255-4.8,7.735.081,13.3.164,15.073.135.146-.006.293-.006.446-.006,12.881,0,27.922,11.9,29.332,35.4a1.973,1.973,0,0,1-1.849,2.087Z" transform="translate(0 0)" stroke="rgba(0,0,0,0)" stroke-width="1" fill="url(#linear-gradient-4)"/>
      </g>
      <path id="路径_2265" data-name="路径 2265" d="M55.557,156.927l-1.968-4.3-7.262-2.656-3.911,2.155Z" transform="translate(-29.839 -121.89)" fill="url(#linear-gradient)"/>
      <path id="路径_2266" data-name="路径 2266" d="M50.171,159.494l1.434.524a.458.458,0,0,1,.272.587l-2.259,6.178a.458.458,0,0,1-.587.273l-1.434-.525a.457.457,0,0,1-.272-.586l2.259-6.179a.458.458,0,0,1,.587-.272" transform="translate(-29.903 -122.012)" fill="url(#linear-gradient)"/>
      <path id="路径_2267" data-name="路径 2267" d="M43.546,157.071l1.434.524a.458.458,0,0,1,.272.587l-2.259,6.178a.458.458,0,0,1-.587.273l-1.434-.525a.457.457,0,0,1-.272-.586l2.259-6.179a.458.458,0,0,1,.587-.272" transform="translate(-29.817 -121.98)" fill="url(#linear-gradient)"/>
      <path id="联合_153" data-name="联合 153" d="M12.414,21.535.392,17.14a.59.59,0,0,1-.354-.765L1.82,11.5,3.176,12a1.308,1.308,0,0,0,1.686-.779L7.029,5.286,14.985,8.2l-2.168,5.928a1.316,1.316,0,0,0,.782,1.685l1.362.5-1.783,4.874a.593.593,0,0,1-.555.39A.567.567,0,0,1,12.414,21.535ZM7.542,4.853,9.2,1.831a3.543,3.543,0,0,1,6.576,2.408L15.1,7.619Z" transform="translate(10.757 18.731)" stroke="rgba(0,0,0,0)" stroke-width="1" fill="url(#linear-gradient-4)"/>
      <path id="路径_2270" data-name="路径 2270" d="M47.406,146.061l8.3,3.036a.63.63,0,0,0,.808-.375l.308-.842a.63.63,0,0,0-.375-.808l-8.3-3.036a.63.63,0,0,0-.808.375l-.308.842a.63.63,0,0,0,.375.808" transform="translate(-29.899 -121.811)" fill="url(#linear-gradient)"/>
      <path id="路径_2271" data-name="路径 2271" d="M49.915,152.146h0a.934.934,0,0,1,.557,1.2l-2.546,6.962-1.755-.642,2.546-6.962a.934.934,0,0,1,1.2-.557" transform="translate(-29.888 -121.915)" fill="url(#linear-gradient-10)"/>
      <path id="联合_152" data-name="联合 152" d="M12.291,10,10.7,7.945a.483.483,0,0,1,.086-.69.492.492,0,0,1,.69.083l1.6,2.054a.5.5,0,0,1-.086.694.475.475,0,0,1-.305.1A.5.5,0,0,1,12.291,10Zm1.538-2.692L11.5,6.118a.494.494,0,0,1,.451-.879l2.326,1.185a.494.494,0,0,1-.22.935A.611.611,0,0,1,13.829,7.309ZM.037,7.04A.5.5,0,0,1,.306,6.4l2.411-.988a.491.491,0,1,1,.373.908l-2.406.99a.506.506,0,0,1-.189.037A.5.5,0,0,1,.037,7.04ZM11.973,4.153a.489.489,0,0,1,.4-.568l2.461-.414A.491.491,0,1,1,15,4.139l-2.46.416a.42.42,0,0,1-.085.006A.491.491,0,0,1,11.973,4.153ZM3.3,4.336.69,4.207a.492.492,0,0,1-.47-.518.471.471,0,0,1,.519-.464l2.607.122a.5.5,0,0,1,.47.518.491.491,0,0,1-.488.472ZM3.176,2.46,1.246.873a.494.494,0,0,1-.073-.7.5.5,0,0,1,.7-.066L3.8,1.7a.5.5,0,0,1,.073.7.5.5,0,0,1-.385.176A.486.486,0,0,1,3.176,2.46Z" transform="translate(159.753 33.938)" stroke="rgba(0,0,0,0)" stroke-width="1" fill="url(#linear-gradient-11)"/>
      <g id="矩形_1481" data-name="矩形 1481" transform="translate(-33.392 -3.045)" fill="#fff" stroke="#707070" stroke-width="1" opacity="0">
        <rect width="210" height="60" stroke="none"/>
        <rect x="0.5" y="0.5" width="209" height="59" fill="none"/>
      </g>
    </g>
  </g>
</svg>
