<svg width="140" height="24" viewBox="0 0 140 24" fill="none" xmlns="http://www.w3.org/2000/svg">
<path d="M13.7634 23.9952C10.6212 23.9952 8.06706 21.3825 8.06706 18.1684V14.0449C8.06706 10.8308 10.6212 8.21814 13.7634 8.21814C16.9056 8.21814 19.4597 10.8308 19.4597 14.0449V15.1179C19.4597 15.6327 19.2575 16.1283 18.9 16.4892C18.5425 16.8501 18.0533 17.057 17.55 17.0425L11.8348 16.9511V18.1732C11.8348 19.2655 12.7003 20.1508 13.7681 20.1508C14.8359 20.1508 15.7014 19.2655 15.7014 18.1732H19.4644C19.4644 21.3873 16.9103 24 13.7681 24L13.7634 23.9952ZM12.0653 13.1019L15.4897 13.1548C15.1698 12.51 14.516 12.0626 13.7634 12.0626C13.0108 12.0626 12.3899 12.4812 12.0653 13.097V13.1019Z" fill="#1A1D26"/>
<path d="M136.237 8.23254V18.4282C136.237 19.3713 135.484 20.1411 134.562 20.1411C133.64 20.1411 132.888 19.3713 132.888 18.4282V8.23254H129.125V18.4282C129.125 19.3713 128.372 20.1411 127.45 20.1411C126.528 20.1411 125.776 19.3713 125.776 18.4282V8.23254H122.013V18.4282C122.013 21.4932 124.454 23.9904 127.45 23.9904C128.81 23.9904 130.051 23.4755 131.006 22.6287C131.961 23.4755 133.203 23.9904 134.562 23.9904C137.559 23.9904 140 21.4932 140 18.4282V8.23254H136.237Z" fill="#1A1D26"/>
<path d="M113.047 23.9952C109.129 23.9952 105.954 20.7474 105.954 16.7394V15.7193C105.954 11.7113 109.129 8.2085 113.047 8.2085C116.965 8.2085 120.14 11.4563 120.14 15.4643V16.7394C120.14 20.7474 116.965 23.9952 113.047 23.9952ZM113.047 12.0577C111.208 12.0577 109.717 13.583 109.717 15.4643V16.7394C109.717 18.6207 111.208 20.1459 113.047 20.1459C114.886 20.1459 116.377 18.6207 116.377 16.7394V15.4643C116.377 13.583 114.886 12.0577 113.047 12.0577Z" fill="#1A1D26"/>
<path d="M6.21846 20.146C4.86376 20.146 3.76306 19.02 3.76306 17.6343V0.0288696H0V17.6295C0 21.1371 2.78937 23.9904 6.21846 23.9904H7.58727V20.1411H6.21846V20.146Z" fill="#1A1D26"/>
<path d="M28.6087 12.919V9.06978H24.7845V5.05695H21.0214V17.6295C21.0214 21.1371 23.8108 23.9904 27.2399 23.9904H28.6087V20.1411H27.2399C25.8852 20.1411 24.7845 19.0152 24.7845 17.6295V12.919H28.6087Z" fill="#1A1D26"/>
<path d="M90.9908 2.6319V0.0769653H87.2278V2.6319C87.2278 6.08178 84.9276 8.97833 81.8137 9.82997V0.0769653H78.0506V23.9904H81.8137V14.1989C84.9229 15.0505 87.2278 17.9519 87.2278 21.3969V23.9519H90.9908V21.3969C90.9908 17.4948 89.0481 14.0449 86.0988 12.0096C89.0481 9.97432 90.9908 6.52925 90.9908 2.62227V2.6319Z" fill="#1A1D26"/>
<path d="M104.077 23.9952H100.314V14.1748C100.314 13.0008 99.3777 12.0433 98.23 12.0433C97.0823 12.0433 96.1462 13.0008 96.1462 14.1748V23.9952H92.3831V14.1748C92.3831 10.8789 95.0032 8.19403 98.23 8.19403C101.457 8.19403 104.077 10.8741 104.077 14.1748V23.9952Z" fill="#1A1D26"/>
<path d="M69.4802 23.9952C66.3381 23.9952 63.7839 21.3825 63.7839 18.1684V14.0449C63.7839 10.8308 66.3381 8.21814 69.4802 8.21814C72.6224 8.21814 75.1766 10.8308 75.1766 14.0449V15.1179C75.1766 15.6327 74.9743 16.1283 74.6168 16.4892C74.2593 16.8501 73.7701 17.057 73.2668 17.0425L67.5517 16.9511V18.1732C67.5517 19.2655 68.4172 20.1508 69.4849 20.1508C70.5527 20.1508 71.4182 19.2655 71.4182 18.1732H75.1813C75.1813 21.3873 72.6271 24 69.4849 24L69.4802 23.9952ZM67.7821 13.1019L71.2065 13.1548C70.8867 12.51 70.2328 12.0626 69.4802 12.0626C68.7276 12.0626 68.1067 12.4812 67.7821 13.097V13.1019Z" fill="#1A1D26"/>
<path d="M41.7276 14.834V23.9471H45.4907V17.5958C43.9949 17.0473 42.6966 16.0802 41.7276 14.834Z" fill="#4170F9"/>
<path d="M58.9625 18.7843C58.9625 19.5349 58.3651 20.146 57.6313 20.146C56.8975 20.146 56.3001 19.5349 56.3001 18.7843V8.60786C56.3001 3.85886 52.5229 0 47.885 0H42.8001C41.7606 0 40.9186 0.861267 40.9186 1.92462V6.44266H39.5451C34.9024 6.44266 31.1299 10.3063 31.1299 15.0505V23.9519H34.893V15.0505C34.893 12.4234 36.9815 10.2919 39.5451 10.2919H41.2949C42.3533 13.8043 45.5613 16.3689 49.3384 16.3689V12.5196C46.7749 12.5196 44.6864 10.3833 44.6864 7.76103V3.84924H47.8897C50.4532 3.84924 52.5417 5.98557 52.5417 8.60786V18.7843C52.5417 21.6568 54.8278 23.9952 57.636 23.9952C60.4442 23.9952 62.7302 21.6568 62.7302 18.7843H58.9672H58.9625Z" fill="#4170F9"/>
<path d="M48.5952 9.72892C49.5045 9.72892 50.2416 8.97495 50.2416 8.04488C50.2416 7.11481 49.5045 6.36084 48.5952 6.36084C47.686 6.36084 46.9489 7.11481 46.9489 8.04488C46.9489 8.97495 47.686 9.72892 48.5952 9.72892Z" fill="#4170F9"/>
</svg>
